<svg width="16" height="17" viewBox="0 0 16 17" fill="none" xmlns="http://www.w3.org/2000/svg">
<path d="M9.34012 8.005C9.34012 3.625 9.35012 0.033 9.36312 0.023C9.37312 0.01 10.0361 0 10.8311 0C11.9841 0 12.3411 0.01 12.5741 0.05C14.3041 0.348 15.6191 1.65 15.9471 3.376C15.9931 3.618 16.0001 4.185 16.0001 7.986C16.0001 12.046 16.0051 12.523 15.8771 12.962C15.8551 13.038 15.8291 13.112 15.7971 13.204C15.5447 13.9411 15.0891 14.5919 14.483 15.0814C13.8769 15.5709 13.1448 15.8793 12.3711 15.971C12.0541 16.004 9.48212 16.017 9.39312 15.984C9.34312 15.964 9.34012 15.232 9.34012 8.005ZM14.0151 8.274C13.9282 8.02384 13.7813 7.7988 13.5873 7.61854C13.3932 7.43829 13.158 7.30832 12.9021 7.24C12.5031 7.13659 12.0797 7.19024 11.7191 7.38989C11.3585 7.58954 11.0882 7.91996 10.9641 8.313C10.8816 8.61863 10.8768 8.94003 10.9501 9.248C11.0722 9.64714 11.3426 9.98433 11.7057 10.1902C12.0687 10.3961 12.4969 10.4551 12.9021 10.355C13.4121 10.219 13.8101 9.851 14.0121 9.327C14.1221 9.042 14.1251 8.585 14.0151 8.274ZM3.71012 3.317C3.50212 3.357 3.18412 3.516 3.01512 3.665C2.66712 3.966 2.49512 4.394 2.52112 4.897C2.53412 5.159 2.55112 5.229 2.65712 5.441C2.81212 5.762 3.04712 5.997 3.36912 6.156C3.59112 6.266 3.64712 6.279 3.93612 6.289C4.19712 6.299 4.29012 6.289 4.46612 6.229C5.18512 5.987 5.61912 5.289 5.49612 4.573C5.35412 3.721 4.54612 3.151 3.71012 3.317Z" fill="#E0E0E0"/>
<path d="M3.42513 0.0529703C2.64767 0.190085 1.9257 0.546841 1.34448 1.0811C0.763268 1.61535 0.347097 2.30479 0.145126 3.06797C0.000125721 3.62797 -0.00987428 3.95597 0.00512572 8.29997C0.0151257 12.29 0.0191257 12.382 0.0851257 12.69C0.453126 14.35 1.63313 15.534 3.30913 15.925C3.52913 15.975 3.80613 15.985 5.59913 15.995C7.45513 16.007 7.64713 16.004 7.69613 15.955C7.74613 15.905 7.74913 15.265 7.74913 8.01497C7.74913 2.64097 7.73913 0.10897 7.71613 0.0629703C7.68313 0.00297029 7.62613 -2.97087e-05 5.68613 0.00297029C4.10813 0.00697029 3.63413 0.0169703 3.42613 0.0529703H3.42513ZM6.42513 14.718L5.07513 14.702C3.83313 14.689 3.70013 14.682 3.45213 14.619C2.93593 14.4916 2.46647 14.2203 2.09828 13.8367C1.7301 13.4531 1.4783 12.973 1.37213 12.452C1.29813 12.117 1.29813 3.87297 1.36813 3.54497C1.46431 3.08883 1.67111 2.66332 1.97033 2.30585C2.26956 1.94839 2.65203 1.66993 3.08413 1.49497C3.52213 1.31897 3.72413 1.29897 5.14213 1.29497L6.42413 1.29197V14.718H6.42513Z" fill="#E0E0E0"/>
</svg>
