<svg width="16" height="16" viewBox="0 0 16 16" fill="none" xmlns="http://www.w3.org/2000/svg">
<path d="M7.20196 15.967C5.9344 15.8364 4.7165 15.4043 3.64996 14.707C2.75196 14.122 2.54896 13.881 2.54896 13.401C2.54896 12.436 3.61096 10.745 5.42796 8.818C6.45896 7.723 7.89696 6.44 8.05196 6.475C8.35396 6.543 10.77 8.898 11.674 10.006C13.104 11.759 13.762 13.195 13.428 13.835C13.174 14.321 11.598 15.272 10.441 15.637C9.48696 15.938 8.23396 16.066 7.20196 15.967ZM1.33596 12.397C0.588961 11.253 0.211961 10.127 0.0299614 8.497C-0.0300386 7.958 -0.00803855 7.651 0.166961 6.547C0.384961 5.17 1.16896 3.577 2.11196 2.597C2.51296 2.18 2.54896 2.17 3.03796 2.334C3.63296 2.534 4.26796 2.972 5.25096 3.862L5.82496 4.381L5.51196 4.766C4.05596 6.553 2.51996 9.086 1.93996 10.653C1.62496 11.505 1.49796 12.36 1.63396 12.716C1.72496 12.956 1.64096 12.866 1.33396 12.397H1.33596ZM14.437 12.592C14.511 12.232 14.418 11.572 14.199 10.905C13.726 9.462 12.144 6.777 10.691 4.952L10.234 4.377L10.728 3.923C11.374 3.33 11.823 2.975 12.308 2.673C12.689 2.436 13.235 2.225 13.469 2.225C13.614 2.225 14.123 2.753 14.534 3.329C15.1879 4.26093 15.6449 5.31645 15.877 6.431C16.03 7.159 16.043 8.717 15.901 9.443C15.7677 10.0932 15.5666 10.7277 15.301 11.336C15.122 11.729 14.677 12.492 14.481 12.74C14.381 12.868 14.381 12.867 14.438 12.592H14.437ZM7.33496 1.952C6.66496 1.612 5.63096 1.247 5.05896 1.149C4.8078 1.1116 4.55374 1.0972 4.29996 1.106C3.82896 1.13 3.84996 1.106 4.60596 0.748004C5.1986 0.463391 5.82492 0.255063 6.46996 0.128004C7.26996 -0.0409957 8.77596 -0.0419958 9.56396 0.123004C10.414 0.303004 11.417 0.675004 11.982 1.023L12.15 1.126L11.765 1.106C10.999 1.068 9.88496 1.376 8.68696 1.959C8.32596 2.135 8.01096 2.275 7.98796 2.271C7.76685 2.17117 7.54875 2.06479 7.33396 1.952H7.33496Z" fill="#E0E0E0"/>
</svg>
